<mxfile host="app.diagrams.net" modified="2024-05-24T15:52:08.023Z" agent="Mozilla/5.0 (Windows NT 10.0; Win64; x64) AppleWebKit/537.36 (KHTML, like Gecko) Chrome/109.0.0.0 Safari/537.36" etag="pcgOHrDlwbEfapPdVk9J" version="24.4.8" type="github">
  <diagram name="第 1 页" id="XMR0FXzbt835oiwzOHaN">
    <mxGraphModel dx="2660" dy="1242" grid="0" gridSize="10" guides="1" tooltips="1" connect="1" arrows="1" fold="1" page="0" pageScale="1" pageWidth="827" pageHeight="1169" math="0" shadow="0">
      <root>
        <mxCell id="0" />
        <mxCell id="1" parent="0" />
        <mxCell id="P713gTkIQYgg8M5f_9R2-21" value="" style="rounded=0;whiteSpace=wrap;html=1;" vertex="1" parent="1">
          <mxGeometry x="-573" y="41" width="1153" height="663" as="geometry" />
        </mxCell>
        <mxCell id="P713gTkIQYgg8M5f_9R2-14" style="edgeStyle=none;curved=1;rounded=0;orthogonalLoop=1;jettySize=auto;html=1;fontSize=12;startSize=8;endSize=8;" edge="1" parent="1" source="P713gTkIQYgg8M5f_9R2-1" target="P713gTkIQYgg8M5f_9R2-7">
          <mxGeometry relative="1" as="geometry" />
        </mxCell>
        <mxCell id="P713gTkIQYgg8M5f_9R2-51" value="8000" style="edgeLabel;html=1;align=center;verticalAlign=middle;resizable=0;points=[];fontSize=12;" vertex="1" connectable="0" parent="P713gTkIQYgg8M5f_9R2-14">
          <mxGeometry x="0.0877" y="2" relative="1" as="geometry">
            <mxPoint as="offset" />
          </mxGeometry>
        </mxCell>
        <mxCell id="P713gTkIQYgg8M5f_9R2-1" value="" style="ellipse;whiteSpace=wrap;html=1;" vertex="1" parent="1">
          <mxGeometry x="-275" y="88.5" width="146" height="105" as="geometry" />
        </mxCell>
        <mxCell id="P713gTkIQYgg8M5f_9R2-18" style="edgeStyle=none;curved=1;rounded=0;orthogonalLoop=1;jettySize=auto;html=1;entryX=1;entryY=1;entryDx=0;entryDy=0;fontSize=12;startSize=8;endSize=8;" edge="1" parent="1" source="P713gTkIQYgg8M5f_9R2-3" target="P713gTkIQYgg8M5f_9R2-4">
          <mxGeometry relative="1" as="geometry" />
        </mxCell>
        <mxCell id="P713gTkIQYgg8M5f_9R2-54" value="udp9007&lt;br&gt;页面展示用UWB相对坐标转经纬度数据" style="edgeLabel;html=1;align=center;verticalAlign=middle;resizable=0;points=[];fontSize=12;" vertex="1" connectable="0" parent="P713gTkIQYgg8M5f_9R2-18">
          <mxGeometry x="-0.0941" y="1" relative="1" as="geometry">
            <mxPoint as="offset" />
          </mxGeometry>
        </mxCell>
        <mxCell id="P713gTkIQYgg8M5f_9R2-3" value="" style="ellipse;whiteSpace=wrap;html=1;" vertex="1" parent="1">
          <mxGeometry x="214" y="86.25" width="156.5" height="109.5" as="geometry" />
        </mxCell>
        <mxCell id="P713gTkIQYgg8M5f_9R2-4" value="" style="rounded=1;whiteSpace=wrap;html=1;" vertex="1" parent="1">
          <mxGeometry x="-80" y="-212" width="195" height="116" as="geometry" />
        </mxCell>
        <mxCell id="P713gTkIQYgg8M5f_9R2-5" value="MQbrokerPlatForm" style="text;html=1;align=center;verticalAlign=middle;whiteSpace=wrap;rounded=0;fontSize=16;" vertex="1" parent="1">
          <mxGeometry x="-232" y="126" width="60" height="30" as="geometry" />
        </mxCell>
        <mxCell id="P713gTkIQYgg8M5f_9R2-6" value="MQbrokerUWB" style="text;html=1;align=center;verticalAlign=middle;whiteSpace=wrap;rounded=0;fontSize=16;" vertex="1" parent="1">
          <mxGeometry x="262.25" y="126" width="60" height="30" as="geometry" />
        </mxCell>
        <mxCell id="P713gTkIQYgg8M5f_9R2-13" style="edgeStyle=none;curved=1;rounded=0;orthogonalLoop=1;jettySize=auto;html=1;entryX=0;entryY=0.5;entryDx=0;entryDy=0;fontSize=12;startSize=8;endSize=8;" edge="1" parent="1" source="P713gTkIQYgg8M5f_9R2-7" target="P713gTkIQYgg8M5f_9R2-4">
          <mxGeometry relative="1" as="geometry" />
        </mxCell>
        <mxCell id="P713gTkIQYgg8M5f_9R2-52" value="udp9007&lt;div&gt;人员区域信息、告警信息&lt;/div&gt;" style="edgeLabel;html=1;align=center;verticalAlign=middle;resizable=0;points=[];fontSize=12;rotation=-39;" vertex="1" connectable="0" parent="P713gTkIQYgg8M5f_9R2-13">
          <mxGeometry x="-0.2897" relative="1" as="geometry">
            <mxPoint x="7" y="-38" as="offset" />
          </mxGeometry>
        </mxCell>
        <mxCell id="P713gTkIQYgg8M5f_9R2-38" style="edgeStyle=none;curved=1;rounded=0;orthogonalLoop=1;jettySize=auto;html=1;fontSize=12;startSize=8;endSize=8;entryX=0.5;entryY=0;entryDx=0;entryDy=0;" edge="1" parent="1" source="P713gTkIQYgg8M5f_9R2-7" target="P713gTkIQYgg8M5f_9R2-36">
          <mxGeometry relative="1" as="geometry" />
        </mxCell>
        <mxCell id="P713gTkIQYgg8M5f_9R2-39" value="10003" style="edgeLabel;html=1;align=center;verticalAlign=middle;resizable=0;points=[];fontSize=12;" vertex="1" connectable="0" parent="P713gTkIQYgg8M5f_9R2-38">
          <mxGeometry x="-0.016" y="1" relative="1" as="geometry">
            <mxPoint as="offset" />
          </mxGeometry>
        </mxCell>
        <mxCell id="P713gTkIQYgg8M5f_9R2-7" value="" style="ellipse;whiteSpace=wrap;html=1;aspect=fixed;" vertex="1" parent="1">
          <mxGeometry x="-499" y="78" width="131" height="131" as="geometry" />
        </mxCell>
        <mxCell id="P713gTkIQYgg8M5f_9R2-8" value="platform" style="text;html=1;align=center;verticalAlign=middle;whiteSpace=wrap;rounded=0;fontSize=16;" vertex="1" parent="1">
          <mxGeometry x="-463.5" y="128.5" width="60" height="30" as="geometry" />
        </mxCell>
        <mxCell id="P713gTkIQYgg8M5f_9R2-16" style="edgeStyle=none;curved=1;rounded=0;orthogonalLoop=1;jettySize=auto;html=1;fontSize=12;startSize=8;endSize=8;" edge="1" parent="1" source="P713gTkIQYgg8M5f_9R2-9" target="P713gTkIQYgg8M5f_9R2-1">
          <mxGeometry relative="1" as="geometry" />
        </mxCell>
        <mxCell id="P713gTkIQYgg8M5f_9R2-49" value="4004" style="edgeLabel;html=1;align=center;verticalAlign=middle;resizable=0;points=[];fontSize=12;" vertex="1" connectable="0" parent="P713gTkIQYgg8M5f_9R2-16">
          <mxGeometry x="-0.1846" y="-1" relative="1" as="geometry">
            <mxPoint as="offset" />
          </mxGeometry>
        </mxCell>
        <mxCell id="P713gTkIQYgg8M5f_9R2-17" style="edgeStyle=none;curved=1;rounded=0;orthogonalLoop=1;jettySize=auto;html=1;fontSize=12;startSize=8;endSize=8;" edge="1" parent="1" source="P713gTkIQYgg8M5f_9R2-9" target="P713gTkIQYgg8M5f_9R2-3">
          <mxGeometry relative="1" as="geometry" />
        </mxCell>
        <mxCell id="P713gTkIQYgg8M5f_9R2-48" value="3997" style="edgeLabel;html=1;align=center;verticalAlign=middle;resizable=0;points=[];fontSize=12;" vertex="1" connectable="0" parent="P713gTkIQYgg8M5f_9R2-17">
          <mxGeometry x="-0.1141" y="-1" relative="1" as="geometry">
            <mxPoint as="offset" />
          </mxGeometry>
        </mxCell>
        <mxCell id="P713gTkIQYgg8M5f_9R2-40" style="edgeStyle=none;curved=1;rounded=0;orthogonalLoop=1;jettySize=auto;html=1;exitX=0;exitY=0.5;exitDx=0;exitDy=0;fontSize=12;startSize=8;endSize=8;entryX=1;entryY=0.5;entryDx=0;entryDy=0;" edge="1" parent="1" source="P713gTkIQYgg8M5f_9R2-9" target="P713gTkIQYgg8M5f_9R2-36">
          <mxGeometry relative="1" as="geometry" />
        </mxCell>
        <mxCell id="P713gTkIQYgg8M5f_9R2-41" value="3998" style="edgeLabel;html=1;align=center;verticalAlign=middle;resizable=0;points=[];fontSize=12;" vertex="1" connectable="0" parent="P713gTkIQYgg8M5f_9R2-40">
          <mxGeometry x="0.0028" y="2" relative="1" as="geometry">
            <mxPoint as="offset" />
          </mxGeometry>
        </mxCell>
        <mxCell id="P713gTkIQYgg8M5f_9R2-9" value="" style="ellipse;whiteSpace=wrap;html=1;aspect=fixed;" vertex="1" parent="1">
          <mxGeometry x="-72" y="365" width="130" height="130" as="geometry" />
        </mxCell>
        <mxCell id="P713gTkIQYgg8M5f_9R2-10" value="LocationEngine" style="text;html=1;align=center;verticalAlign=middle;whiteSpace=wrap;rounded=0;fontSize=16;" vertex="1" parent="1">
          <mxGeometry x="-37" y="415" width="60" height="30" as="geometry" />
        </mxCell>
        <mxCell id="P713gTkIQYgg8M5f_9R2-15" style="edgeStyle=none;curved=1;rounded=0;orthogonalLoop=1;jettySize=auto;html=1;entryX=1;entryY=0.5;entryDx=0;entryDy=0;fontSize=12;startSize=8;endSize=8;" edge="1" parent="1" source="P713gTkIQYgg8M5f_9R2-11" target="P713gTkIQYgg8M5f_9R2-1">
          <mxGeometry relative="1" as="geometry" />
        </mxCell>
        <mxCell id="P713gTkIQYgg8M5f_9R2-50" value="4004" style="edgeLabel;html=1;align=center;verticalAlign=middle;resizable=0;points=[];fontSize=12;" vertex="1" connectable="0" parent="P713gTkIQYgg8M5f_9R2-15">
          <mxGeometry x="-0.186" y="1" relative="1" as="geometry">
            <mxPoint as="offset" />
          </mxGeometry>
        </mxCell>
        <mxCell id="P713gTkIQYgg8M5f_9R2-19" style="edgeStyle=none;curved=1;rounded=0;orthogonalLoop=1;jettySize=auto;html=1;entryX=0.5;entryY=1;entryDx=0;entryDy=0;fontSize=12;startSize=8;endSize=8;" edge="1" parent="1" source="P713gTkIQYgg8M5f_9R2-11" target="P713gTkIQYgg8M5f_9R2-4">
          <mxGeometry relative="1" as="geometry" />
        </mxCell>
        <mxCell id="P713gTkIQYgg8M5f_9R2-53" value="udp9007&lt;div&gt;页面展示用卫星定位数据&lt;/div&gt;" style="edgeLabel;html=1;align=center;verticalAlign=middle;resizable=0;points=[];fontSize=12;" vertex="1" connectable="0" parent="P713gTkIQYgg8M5f_9R2-19">
          <mxGeometry x="-0.2696" relative="1" as="geometry">
            <mxPoint x="-1" y="-24" as="offset" />
          </mxGeometry>
        </mxCell>
        <mxCell id="P713gTkIQYgg8M5f_9R2-11" value="" style="ellipse;whiteSpace=wrap;html=1;aspect=fixed;" vertex="1" parent="1">
          <mxGeometry x="-37" y="73" width="136" height="136" as="geometry" />
        </mxCell>
        <mxCell id="P713gTkIQYgg8M5f_9R2-12" value="JT808" style="text;html=1;align=center;verticalAlign=middle;whiteSpace=wrap;rounded=0;fontSize=16;" vertex="1" parent="1">
          <mxGeometry x="1" y="128" width="60" height="30" as="geometry" />
        </mxCell>
        <mxCell id="P713gTkIQYgg8M5f_9R2-20" value="综管平台&lt;div&gt;北山：10.101.101.227&lt;br&gt;&lt;/div&gt;&lt;div&gt;金能：172.16.2.100&lt;/div&gt;" style="text;html=1;align=center;verticalAlign=middle;whiteSpace=wrap;rounded=0;fontSize=16;" vertex="1" parent="1">
          <mxGeometry x="-72" y="-181" width="176" height="30" as="geometry" />
        </mxCell>
        <mxCell id="P713gTkIQYgg8M5f_9R2-26" style="edgeStyle=none;curved=1;rounded=0;orthogonalLoop=1;jettySize=auto;html=1;exitX=0;exitY=0.5;exitDx=0;exitDy=0;fontSize=12;startSize=8;endSize=8;" edge="1" parent="1" source="P713gTkIQYgg8M5f_9R2-23" target="P713gTkIQYgg8M5f_9R2-21">
          <mxGeometry relative="1" as="geometry" />
        </mxCell>
        <mxCell id="P713gTkIQYgg8M5f_9R2-27" value="tcp1865" style="edgeLabel;html=1;align=center;verticalAlign=middle;resizable=0;points=[];fontSize=12;" vertex="1" connectable="0" parent="P713gTkIQYgg8M5f_9R2-26">
          <mxGeometry x="-0.3285" y="4" relative="1" as="geometry">
            <mxPoint x="-1" as="offset" />
          </mxGeometry>
        </mxCell>
        <mxCell id="P713gTkIQYgg8M5f_9R2-23" value="" style="rhombus;whiteSpace=wrap;html=1;" vertex="1" parent="1">
          <mxGeometry x="731" y="-143" width="191" height="200" as="geometry" />
        </mxCell>
        <mxCell id="P713gTkIQYgg8M5f_9R2-24" value="RTK基站" style="text;html=1;align=center;verticalAlign=middle;whiteSpace=wrap;rounded=0;fontSize=16;" vertex="1" parent="1">
          <mxGeometry x="791.25" y="-58" width="70.5" height="30" as="geometry" />
        </mxCell>
        <mxCell id="P713gTkIQYgg8M5f_9R2-25" value="服务器&lt;br&gt;北山：10.101.112.9&lt;br&gt;Administrator&lt;br&gt;QAZwsx123!@#&lt;br&gt;&lt;div&gt;金能：10.106.112.9&lt;/div&gt;&lt;div&gt;Administrator&lt;br&gt;QAZwsx123!@#&lt;br&gt;&lt;/div&gt;" style="text;html=1;align=center;verticalAlign=middle;whiteSpace=wrap;rounded=0;fontSize=16;" vertex="1" parent="1">
          <mxGeometry x="-102.63" y="498" width="192.63" height="161" as="geometry" />
        </mxCell>
        <mxCell id="P713gTkIQYgg8M5f_9R2-30" style="edgeStyle=none;curved=1;rounded=0;orthogonalLoop=1;jettySize=auto;html=1;fontSize=12;startSize=8;endSize=8;entryX=1.004;entryY=0.35;entryDx=0;entryDy=0;entryPerimeter=0;" edge="1" parent="1" source="P713gTkIQYgg8M5f_9R2-28" target="P713gTkIQYgg8M5f_9R2-21">
          <mxGeometry relative="1" as="geometry">
            <mxPoint x="570" y="388" as="targetPoint" />
          </mxGeometry>
        </mxCell>
        <mxCell id="P713gTkIQYgg8M5f_9R2-31" value="tcp1865RTK基站交互" style="edgeLabel;html=1;align=center;verticalAlign=middle;resizable=0;points=[];fontSize=12;" vertex="1" connectable="0" parent="P713gTkIQYgg8M5f_9R2-30">
          <mxGeometry x="0.0304" y="-1" relative="1" as="geometry">
            <mxPoint x="-1" as="offset" />
          </mxGeometry>
        </mxCell>
        <mxCell id="P713gTkIQYgg8M5f_9R2-32" style="edgeStyle=none;curved=1;rounded=0;orthogonalLoop=1;jettySize=auto;html=1;entryX=1;entryY=0.5;entryDx=0;entryDy=0;fontSize=12;startSize=8;endSize=8;" edge="1" parent="1" source="P713gTkIQYgg8M5f_9R2-28" target="P713gTkIQYgg8M5f_9R2-9">
          <mxGeometry relative="1" as="geometry" />
        </mxCell>
        <mxCell id="P713gTkIQYgg8M5f_9R2-33" value="tcp1867UWB数据传输" style="edgeLabel;html=1;align=center;verticalAlign=middle;resizable=0;points=[];fontSize=12;" vertex="1" connectable="0" parent="P713gTkIQYgg8M5f_9R2-32">
          <mxGeometry x="-0.0019" y="4" relative="1" as="geometry">
            <mxPoint x="1" as="offset" />
          </mxGeometry>
        </mxCell>
        <mxCell id="P713gTkIQYgg8M5f_9R2-34" value="tcp1866卫星数据回传" style="edgeStyle=none;curved=1;rounded=0;orthogonalLoop=1;jettySize=auto;html=1;fontSize=12;startSize=8;endSize=8;" edge="1" parent="1">
          <mxGeometry x="0.0002" relative="1" as="geometry">
            <mxPoint x="900.5509379407686" y="409.3388054620889" as="sourcePoint" />
            <mxPoint x="95.98008913457215" y="161.03966107661586" as="targetPoint" />
            <mxPoint as="offset" />
          </mxGeometry>
        </mxCell>
        <mxCell id="P713gTkIQYgg8M5f_9R2-28" value="" style="rhombus;whiteSpace=wrap;html=1;" vertex="1" parent="1">
          <mxGeometry x="878" y="348" width="179" height="164" as="geometry" />
        </mxCell>
        <mxCell id="P713gTkIQYgg8M5f_9R2-29" value="终端" style="text;html=1;align=center;verticalAlign=middle;whiteSpace=wrap;rounded=0;fontSize=16;" vertex="1" parent="1">
          <mxGeometry x="937.5" y="415" width="60" height="30" as="geometry" />
        </mxCell>
        <mxCell id="P713gTkIQYgg8M5f_9R2-36" value="" style="triangle;whiteSpace=wrap;html=1;" vertex="1" parent="1">
          <mxGeometry x="-437" y="365" width="122" height="121" as="geometry" />
        </mxCell>
        <mxCell id="P713gTkIQYgg8M5f_9R2-37" value="UDP抓包自测" style="text;html=1;align=center;verticalAlign=middle;whiteSpace=wrap;rounded=0;fontSize=16;" vertex="1" parent="1">
          <mxGeometry x="-431" y="410.5" width="60" height="30" as="geometry" />
        </mxCell>
        <mxCell id="P713gTkIQYgg8M5f_9R2-42" style="edgeStyle=none;curved=1;rounded=0;orthogonalLoop=1;jettySize=auto;html=1;exitX=0.5;exitY=1;exitDx=0;exitDy=0;entryX=0.75;entryY=0.392;entryDx=0;entryDy=0;entryPerimeter=0;fontSize=12;startSize=8;endSize=8;" edge="1" parent="1" source="P713gTkIQYgg8M5f_9R2-11" target="P713gTkIQYgg8M5f_9R2-36">
          <mxGeometry relative="1" as="geometry" />
        </mxCell>
        <mxCell id="P713gTkIQYgg8M5f_9R2-43" value="3999" style="edgeLabel;html=1;align=center;verticalAlign=middle;resizable=0;points=[];fontSize=12;" vertex="1" connectable="0" parent="P713gTkIQYgg8M5f_9R2-42">
          <mxGeometry x="0.0209" relative="1" as="geometry">
            <mxPoint as="offset" />
          </mxGeometry>
        </mxCell>
        <mxCell id="P713gTkIQYgg8M5f_9R2-44" style="edgeStyle=none;curved=1;rounded=0;orthogonalLoop=1;jettySize=auto;html=1;exitX=0.5;exitY=1;exitDx=0;exitDy=0;entryX=0.854;entryY=0.438;entryDx=0;entryDy=0;entryPerimeter=0;fontSize=12;startSize=8;endSize=8;" edge="1" parent="1" source="P713gTkIQYgg8M5f_9R2-3" target="P713gTkIQYgg8M5f_9R2-36">
          <mxGeometry relative="1" as="geometry" />
        </mxCell>
        <mxCell id="P713gTkIQYgg8M5f_9R2-45" value="4005" style="edgeLabel;html=1;align=center;verticalAlign=middle;resizable=0;points=[];fontSize=12;" vertex="1" connectable="0" parent="P713gTkIQYgg8M5f_9R2-44">
          <mxGeometry x="0.004" relative="1" as="geometry">
            <mxPoint as="offset" />
          </mxGeometry>
        </mxCell>
        <mxCell id="P713gTkIQYgg8M5f_9R2-46" style="edgeStyle=none;curved=1;rounded=0;orthogonalLoop=1;jettySize=auto;html=1;exitX=0;exitY=1;exitDx=0;exitDy=0;entryX=0.604;entryY=0.287;entryDx=0;entryDy=0;entryPerimeter=0;fontSize=12;startSize=8;endSize=8;" edge="1" parent="1" source="P713gTkIQYgg8M5f_9R2-1" target="P713gTkIQYgg8M5f_9R2-36">
          <mxGeometry relative="1" as="geometry" />
        </mxCell>
        <mxCell id="P713gTkIQYgg8M5f_9R2-47" value="4003" style="edgeLabel;html=1;align=center;verticalAlign=middle;resizable=0;points=[];fontSize=12;" vertex="1" connectable="0" parent="P713gTkIQYgg8M5f_9R2-46">
          <mxGeometry x="0.015" relative="1" as="geometry">
            <mxPoint as="offset" />
          </mxGeometry>
        </mxCell>
        <mxCell id="P713gTkIQYgg8M5f_9R2-55" style="edgeStyle=none;curved=1;rounded=0;orthogonalLoop=1;jettySize=auto;html=1;exitX=0;exitY=0.75;exitDx=0;exitDy=0;entryX=0.947;entryY=0.301;entryDx=0;entryDy=0;entryPerimeter=0;fontSize=12;startSize=8;endSize=8;" edge="1" parent="1" source="P713gTkIQYgg8M5f_9R2-4" target="P713gTkIQYgg8M5f_9R2-7">
          <mxGeometry relative="1" as="geometry" />
        </mxCell>
        <mxCell id="P713gTkIQYgg8M5f_9R2-56" value="http调用接口" style="edgeLabel;html=1;align=center;verticalAlign=middle;resizable=0;points=[];fontSize=12;rotation=-39;" vertex="1" connectable="0" parent="1">
          <mxGeometry x="-222.00103044533245" y="25.00258288922111" as="geometry" />
        </mxCell>
      </root>
    </mxGraphModel>
  </diagram>
</mxfile>
